<?xml version="1.0" encoding="utf-8"?>
<!-- Generator: Adobe Illustrator 24.2.3, SVG Export Plug-In . SVG Version: 6.00 Build 0)  -->
<svg version="1.1" id="Calque_1" xmlns="http://www.w3.org/2000/svg" xmlns:xlink="http://www.w3.org/1999/xlink" x="0px" y="0px"
	 viewBox="0 0 2500 699" style="enable-background:new 0 0 2500 699;" xml:space="preserve">
<style type="text/css">
	.st0{fill:url(#SVGID_1_);}
	.st1{fill:#232C33;}
	.st2{fill:url(#SVGID_2_);}
	.st3{fill:url(#SVGID_3_);}
	.st4{fill:url(#SVGID_4_);}
	.st5{fill:url(#SVGID_5_);}
	.st6{fill:url(#SVGID_6_);}
	.st7{fill:url(#SVGID_7_);}
	.st8{fill:url(#SVGID_8_);}
	.st9{fill:url(#SVGID_9_);}
	.st10{fill:url(#SVGID_10_);}
</style>
<g>
	<g>
		
			<linearGradient id="SVGID_1_" gradientUnits="userSpaceOnUse" x1="1976.6663" y1="626.8615" x2="2081.0369" y2="576.4749" gradientTransform="matrix(3.1244 0 0 -3.1244 -6067.1797 2195.5996)">
			<stop  offset="0.107" style="stop-color:#C957E6"/>
			<stop  offset="1" style="stop-color:#1A9FFF"/>
		</linearGradient>
		<path class="st0" d="M342.3,481.5c-77.6,0-140.4-58.9-140.4-131.7s62.8-131.7,140.4-131.7S482.7,277,482.7,349.8
			S419.9,481.5,342.3,481.5z"/>
		<path class="st1" d="M522.3,349.5c0-93.2-80.6-168.8-180-168.8V86.1c155.1,0,280.8,117.9,280.8,263.4S497.3,612.9,342.2,612.9
			v-94.5C441.7,518.4,522.3,442.7,522.3,349.5L522.3,349.5z"/>
	</g>
	<g>
		<g>
			<g>
				<path d="M870.8,152.3c18,0,33.3,6.7,45.9,20c12.1,13.2,18.1,28.9,18.1,47.1c0,18.1-6,33.7-18,46.9c-12.6,13.4-27.8,20-45.8,20
					h-52.2v36H776v-170H870.8z M870.7,243.6c6.1,0,11.2-2.5,15.3-7.5s6.2-10.5,6.2-16.6c0-6.3-2.1-11.9-6.2-16.9
					c-4.1-5-9.2-7.5-15.3-7.5h-52v48.5H870.7z"/>
				<path d="M1028.9,283.7c10.9,0,20-4.2,27.2-12.7s10.9-18.3,10.9-29.5V152h42.6v89.4c0,22.9-7.6,42.7-22.9,59.3
					c-15.8,17.2-35.1,25.7-57.8,25.7c-22.7,0-41.9-8.6-57.8-25.7c-15.3-16.6-22.9-36.4-22.9-59.3V152h42.6v89.4
					c0,11.2,3.6,21,10.9,29.5C1009,279.5,1018,283.7,1028.9,283.7z"/>
				<path d="M1129.9,151h42.6v171.5h-42.6V151z"/>
				<path d="M1235.1,202.4c0,8.5,2.8,12.8,8.4,12.8h60.1c14.2,0,26.4,5,36.4,15.1s15,22.2,15,36.5v3.8c0,14.2-5,26.4-15,36.5
					s-22.1,15.1-36.3,15.1h-98.2v-42.8h98.2c2.3,0,4.4-0.9,6.1-2.6s2.6-3.8,2.6-6.2c0-8.4-2.9-12.6-8.6-12.6h-59.9
					c-14,0-26.1-5.1-36.2-15.2c-10.1-10.1-15.1-22.3-15.1-36.6v-3.8c0-14.3,5-26.5,15.1-36.6c10.1-10.1,22.1-15.2,36.2-15.2h98.5
					v42.8h-98.8c-2.2,0-4.1,0.9-5.8,2.6C1236,197.9,1235.1,200,1235.1,202.4z"/>
				<path d="M1411.1,202.4c0,8.5,2.8,12.8,8.4,12.8h60.1c14.2,0,26.4,5,36.4,15.1s15,22.2,15,36.5v3.8c0,14.2-5,26.4-15,36.5
					s-22.1,15.1-36.3,15.1h-98.2v-42.8h98.2c2.3,0,4.4-0.9,6.1-2.6s2.6-3.8,2.6-6.2c0-8.4-2.9-12.6-8.6-12.6h-59.9
					c-14,0-26.1-5.1-36.2-15.2c-10.1-10.1-15.1-22.3-15.1-36.6v-3.8c0-14.3,5-26.5,15.1-36.6c10.1-10.1,22.1-15.2,36.2-15.2h98.5
					v42.8h-98.8c-2.2,0-4.1,0.9-5.8,2.6C1412,197.9,1411.1,200,1411.1,202.4z"/>
				<path d="M1683.2,172c15.8,16.7,23.8,36.9,23.8,60.6v89.9h-42.6v-38.7h-76.9v38.7h-42.9v-89.9c0-23.7,8-43.8,23.9-60.6
					c15.9-16.7,35-25.1,57.4-25.1C1648.2,146.9,1667.3,155.3,1683.2,172z M1664.3,240.9v-8.4c0-11.7-3.8-21.8-11.3-30.2
					c-7.6-8.4-16.6-12.6-27.3-12.6c-10.6,0-19.7,4.2-27.1,12.6c-7.5,8.4-11.2,18.5-11.2,30.2v8.4H1664.3z"/>
				<path d="M1801.1,146.6c22.7,0,41.9,8.6,57.8,25.7c15.3,16.6,22.9,36.5,22.9,59.6v90.5h-42.6V232c0-11.2-3.6-21.1-10.9-29.7
					c-7.2-8.6-16.3-12.9-27.2-12.9c-10.9,0-20,4.3-27.2,12.9c-7.2,8.6-10.9,18.5-10.9,29.7v90.5h-42.6V232c0-23.1,7.8-43.1,23.3-60
					C1759.3,155.1,1778.4,146.6,1801.1,146.6z"/>
				<path d="M1919.2,176.2c15.9-16.8,35-25.2,57.4-25.2h59.9v43h-59.9c-10.6,0-19.7,4.2-27.1,12.6c-7.5,8.4-11.2,18.5-11.2,30.2
					s3.7,21.8,11.2,30.1s16.5,12.5,27.1,12.5h59.9v43.1h-59.9c-22.3,0-41.4-8.4-57.4-25.1c-15.9-16.7-23.9-36.9-23.9-60.6
					C1895.3,213.2,1903.3,193,1919.2,176.2z"/>
				<path d="M2131.2,151h70.7v42.8h-70.7c-14.6,0-25.6,7.2-33.2,21.7h71.8v42.8H2098c7.6,14.3,18.6,21.4,33.2,21.4h70.7v42.8h-70.7
					c-22.9,0-42.1-8.5-57.8-25.5s-23.5-37-23.5-60.1s7.8-43.2,23.5-60.3C2089.1,159.5,2108.3,151,2131.2,151z"/>
			</g>
			<g>
				
					<linearGradient id="SVGID_2_" gradientUnits="userSpaceOnUse" x1="776" y1="462.5898" x2="2201.8545" y2="462.5898" gradientTransform="matrix(1 0 0 -1 0 699.8898)">
					<stop  offset="0.107" style="stop-color:#C957E6"/>
					<stop  offset="1" style="stop-color:#1A9FFF"/>
				</linearGradient>
				<path class="st2" d="M870.8,152.3c18,0,33.3,6.7,45.9,20c12.1,13.2,18.1,28.9,18.1,47.1c0,18.1-6,33.7-18,46.9
					c-12.6,13.4-27.8,20-45.8,20h-52.2v36H776v-170H870.8z M870.7,243.6c6.1,0,11.2-2.5,15.3-7.5s6.2-10.5,6.2-16.6
					c0-6.3-2.1-11.9-6.2-16.9c-4.1-5-9.2-7.5-15.3-7.5h-52v48.5H870.7z"/>
				
					<linearGradient id="SVGID_3_" gradientUnits="userSpaceOnUse" x1="776.0452" y1="460.6898" x2="2201.8997" y2="460.6898" gradientTransform="matrix(1 0 0 -1 0 699.8898)">
					<stop  offset="0.107" style="stop-color:#C957E6"/>
					<stop  offset="1" style="stop-color:#1A9FFF"/>
				</linearGradient>
				<path class="st3" d="M1028.9,283.7c10.9,0,20-4.2,27.2-12.7s10.9-18.3,10.9-29.5V152h42.6v89.4c0,22.9-7.6,42.7-22.9,59.3
					c-15.8,17.2-35.1,25.7-57.8,25.7c-22.7,0-41.9-8.6-57.8-25.7c-15.3-16.6-22.9-36.4-22.9-59.3V152h42.6v89.4
					c0,11.2,3.6,21,10.9,29.5C1009,279.5,1018,283.7,1028.9,283.7z"/>
				
					<linearGradient id="SVGID_4_" gradientUnits="userSpaceOnUse" x1="776.0452" y1="463.1398" x2="2201.8997" y2="463.1398" gradientTransform="matrix(1 0 0 -1 0 699.8898)">
					<stop  offset="0.107" style="stop-color:#C957E6"/>
					<stop  offset="1" style="stop-color:#1A9FFF"/>
				</linearGradient>
				<path class="st4" d="M1129.9,151h42.6v171.5h-42.6V151z"/>
				
					<linearGradient id="SVGID_5_" gradientUnits="userSpaceOnUse" x1="776.0452" y1="463.4898" x2="2201.8997" y2="463.4898" gradientTransform="matrix(1 0 0 -1 0 699.8898)">
					<stop  offset="0.107" style="stop-color:#C957E6"/>
					<stop  offset="1" style="stop-color:#1A9FFF"/>
				</linearGradient>
				<path class="st5" d="M1235.1,202.4c0,8.5,2.8,12.8,8.4,12.8h60.1c14.2,0,26.4,5,36.4,15.1s15,22.2,15,36.5v3.8
					c0,14.2-5,26.4-15,36.5s-22.1,15.1-36.3,15.1h-98.2v-42.8h98.2c2.3,0,4.4-0.9,6.1-2.6s2.6-3.8,2.6-6.2c0-8.4-2.9-12.6-8.6-12.6
					h-59.9c-14,0-26.1-5.1-36.2-15.2c-10.1-10.1-15.1-22.3-15.1-36.6v-3.8c0-14.3,5-26.5,15.1-36.6c10.1-10.1,22.1-15.2,36.2-15.2
					h98.5v42.8h-98.8c-2.2,0-4.1,0.9-5.8,2.6C1236,197.9,1235.1,200,1235.1,202.4z"/>
				
					<linearGradient id="SVGID_6_" gradientUnits="userSpaceOnUse" x1="776.0452" y1="463.4898" x2="2201.8997" y2="463.4898" gradientTransform="matrix(1 0 0 -1 0 699.8898)">
					<stop  offset="0.107" style="stop-color:#C957E6"/>
					<stop  offset="1" style="stop-color:#1A9FFF"/>
				</linearGradient>
				<path class="st6" d="M1411.1,202.4c0,8.5,2.8,12.8,8.4,12.8h60.1c14.2,0,26.4,5,36.4,15.1s15,22.2,15,36.5v3.8
					c0,14.2-5,26.4-15,36.5s-22.1,15.1-36.3,15.1h-98.2v-42.8h98.2c2.3,0,4.4-0.9,6.1-2.6s2.6-3.8,2.6-6.2c0-8.4-2.9-12.6-8.6-12.6
					h-59.9c-14,0-26.1-5.1-36.2-15.2c-10.1-10.1-15.1-22.3-15.1-36.6v-3.8c0-14.3,5-26.5,15.1-36.6c10.1-10.1,22.1-15.2,36.2-15.2
					h98.5v42.8h-98.8c-2.2,0-4.1,0.9-5.8,2.6C1412,197.9,1411.1,200,1411.1,202.4z"/>
				
					<linearGradient id="SVGID_7_" gradientUnits="userSpaceOnUse" x1="776.0452" y1="465.1898" x2="2201.8997" y2="465.1898" gradientTransform="matrix(1 0 0 -1 0 699.8898)">
					<stop  offset="0.107" style="stop-color:#C957E6"/>
					<stop  offset="1" style="stop-color:#1A9FFF"/>
				</linearGradient>
				<path class="st7" d="M1683.2,172c15.8,16.7,23.8,36.9,23.8,60.6v89.9h-42.6v-38.7h-76.9v38.7h-42.9v-89.9
					c0-23.7,8-43.8,23.9-60.6c15.9-16.7,35-25.1,57.4-25.1C1648.2,146.9,1667.3,155.3,1683.2,172z M1664.3,240.9v-8.4
					c0-11.7-3.8-21.8-11.3-30.2c-7.6-8.4-16.6-12.6-27.3-12.6c-10.6,0-19.7,4.2-27.1,12.6c-7.5,8.4-11.2,18.5-11.2,30.2v8.4H1664.3z
					"/>
				
					<linearGradient id="SVGID_8_" gradientUnits="userSpaceOnUse" x1="776.0452" y1="465.3398" x2="2201.8997" y2="465.3398" gradientTransform="matrix(1 0 0 -1 0 699.8898)">
					<stop  offset="0.107" style="stop-color:#C957E6"/>
					<stop  offset="1" style="stop-color:#1A9FFF"/>
				</linearGradient>
				<path class="st8" d="M1801.1,146.6c22.7,0,41.9,8.6,57.8,25.7c15.3,16.6,22.9,36.5,22.9,59.6v90.5h-42.6V232
					c0-11.2-3.6-21.1-10.9-29.7c-7.2-8.6-16.3-12.9-27.2-12.9c-10.9,0-20,4.3-27.2,12.9c-7.2,8.6-10.9,18.5-10.9,29.7v90.5h-42.6
					V232c0-23.1,7.8-43.1,23.3-60C1759.3,155.1,1778.4,146.6,1801.1,146.6z"/>
				
					<linearGradient id="SVGID_9_" gradientUnits="userSpaceOnUse" x1="776.0452" y1="463.1398" x2="2201.8997" y2="463.1398" gradientTransform="matrix(1 0 0 -1 0 699.8898)">
					<stop  offset="0.107" style="stop-color:#C957E6"/>
					<stop  offset="1" style="stop-color:#1A9FFF"/>
				</linearGradient>
				<path class="st9" d="M1919.2,176.2c15.9-16.8,35-25.2,57.4-25.2h59.9v43h-59.9c-10.6,0-19.7,4.2-27.1,12.6
					c-7.5,8.4-11.2,18.5-11.2,30.2s3.7,21.8,11.2,30.1s16.5,12.5,27.1,12.5h59.9v43.1h-59.9c-22.3,0-41.4-8.4-57.4-25.1
					c-15.9-16.7-23.9-36.9-23.9-60.6C1895.3,213.2,1903.3,193,1919.2,176.2z"/>
				
					<linearGradient id="SVGID_10_" gradientUnits="userSpaceOnUse" x1="776.0452" y1="463.1398" x2="2201.8997" y2="463.1398" gradientTransform="matrix(1 0 0 -1 0 699.8898)">
					<stop  offset="0.107" style="stop-color:#C957E6"/>
					<stop  offset="1" style="stop-color:#1A9FFF"/>
				</linearGradient>
				<path class="st10" d="M2131.2,151h70.7v42.8h-70.7c-14.6,0-25.6,7.2-33.2,21.7h71.8v42.8H2098c7.6,14.3,18.6,21.4,33.2,21.4
					h70.7v42.8h-70.7c-22.9,0-42.1-8.5-57.8-25.5s-23.5-37-23.5-60.1s7.8-43.2,23.5-60.3C2089.1,159.5,2108.3,151,2131.2,151z"/>
			</g>
		</g>
		<g>
			<path class="st1" d="M830.6,376.4c10.7,0,20.4,1.4,29,4.3c8.6,2.7,16.1,6.1,22.2,10.2l-12,20c-5.8-3.8-12.1-6.8-19-8.9
				c-7-2.3-13.6-3.4-19.9-3.4c-8.6,0-15.3,1.7-20.2,5c-4.8,3.4-7.2,8-7.2,13.8c0,3.9,1.4,7.3,4.3,10.2c2.9,2.8,6.3,5.1,10.4,7
				c4.2,1.9,10.3,4.2,18.1,7c10.6,3.7,19,7.1,25.4,10.2c6.3,3,11.8,7.3,16.5,13c4.7,5.5,7,12.5,7,21c0,9-2.5,17-7.5,23.8
				c-4.8,6.8-11.8,12.1-20.9,15.7c-9.1,3.7-19.6,5.5-31.5,5.5c-9.8,0-19.8-1.2-29.9-3.6c-10-2.6-18.7-6-26.3-10.4l9.3-21.9
				c7.2,3.7,15,6.6,23.1,8.9c8.2,2.1,16.1,3.2,23.8,3.2c10,0,17.3-1.7,22.2-5.3c5-3.7,7.5-8.5,7.5-14.5c0-5.7-2.6-10-7.7-13.2
				c-5.1-3.2-13.1-6.6-23.8-10.2c-10.9-3.5-19.7-6.8-26.3-9.8c-6.5-3.2-12.1-7.5-16.8-13.2c-4.7-5.8-7-13.3-7-22.5
				c0-8.4,2.3-15.8,7-22.1c4.7-6.3,11.3-11.2,19.9-14.6C809,378.2,819.1,376.4,830.6,376.4L830.6,376.4z"/>
			<polygon class="st1" points="976.7,528.3 948.1,528.3 948.1,402.5 898.6,402.5 898.6,379.6 1026.3,379.6 1026.3,402.5 
				976.7,402.5 			"/>
			<polygon class="st1" points="1049.5,379.6 1154.2,379.6 1154.2,402.4 1078.1,402.4 1078.1,441.5 1144.2,441.5 1144.2,464.5 
				1078.1,464.5 1078.1,505 1154.2,505 1154.2,528.4 1049.5,528.4 			"/>
			<path class="st1" d="M1259.8,379.6h-29.7l-59.3,148.7h29.9l11.6-31.4h65.4l11.8,31.4h31L1259.8,379.6z M1220.3,475.3l24.5-66.3
				l24.6,66.3H1220.3z"/>
			<polygon class="st1" points="1427.8,491.8 1480.1,379.6 1509.4,379.6 1509.4,528.3 1481.9,528.3 1481.9,427 1435.5,525.2 
				1417.4,525.2 1370.2,428.1 1370.2,528.4 1344,528.4 1344,379.6 1371.8,379.6 			"/>
			<path class="st1" d="M1729.3,414.2c-7.4-11.2-17.7-19.7-31-25.7s-28.5-8.9-45.5-8.9h-55.1v148.7h55.1c17,0,32.2-3,45.5-9.1
				c13.2-6.1,23.6-14.8,31-26.2c7.5-11.3,11.3-24.6,11.3-39.7C1740.7,438.3,1736.9,425.3,1729.3,414.2z M1655.3,490.3H1644v-72v-0.1
				h11.3c12,0,21,2.6,27.2,8.1c6.3,5.4,9.5,14.4,9.5,27C1692,478,1679.8,490.3,1655.3,490.3z"/>
			<polygon class="st1" points="1762.2,379.6 1875,379.6 1875,415.7 1807.5,415.7 1807.5,435.7 1864.1,435.7 1864.1,471.8 
				1807.5,471.8 1807.5,492.2 1875,492.2 1875,528.3 1762.2,528.3 			"/>
			<path class="st1" d="M1979.4,375.8c10.6,0,20.8,1.4,30.6,4.1c10,2.6,17.9,6,23.8,10.4l-20.6,33.8c-4.1-2.8-9-5-14.7-6.6
				c-5.6-1.6-11-2.3-16.3-2.3c-10.8,0-19.8,3.5-26.7,10.4c-6.9,6.8-10.4,16.6-10.4,29.3c0,11.9,3.2,21.3,9.6,28
				c6.5,6.6,15.6,9.9,27.1,9.9c11.6,0,22.6-3.9,33.1-11.7l21.8,30.6c-6,5.8-14.4,10.7-25,14.6c-10.4,3.8-22.1,5.7-34.8,5.7
				c-15.8,0-29.9-3.2-42.1-9.6c-12.1-6.6-21.4-15.6-28.1-27.2c-6.7-11.8-10-25.4-10-40.8c0-15.8,3.4-29.5,10.2-41.4
				c7-11.9,16.7-21.1,29.2-27.6C1948.5,379,1963,375.8,1979.4,375.8L1979.4,375.8z"/>
			<polygon class="st1" points="2144.1,441.4 2208.6,528.3 2150.2,528.3 2112.1,474.1 2100.3,486.3 2100.3,528.3 2053.5,528.3 
				2053.5,379.6 2100.3,379.6 2100.3,433.6 2147,379.6 2204.5,379.6 			"/>
		</g>
	</g>
</g>
</svg>
